<svg width="24" height="24" viewBox="0 0 24 24" fill="none" xmlns="http://www.w3.org/2000/svg">
<g clip-path="url(#clip0_7570_33240)">
<path fill-rule="evenodd" clip-rule="evenodd" d="M4.99992 9C4.99992 5.13401 8.13392 2 11.9999 2C12.1958 2 12.39 2.00807 12.5821 2.02392C13.1326 2.06933 13.5419 2.55234 13.4965 3.10276C13.4511 3.65317 12.9681 4.06256 12.4177 4.01715C12.2801 4.0058 12.1408 4 11.9999 4C9.23849 4 6.99992 6.23858 6.99992 9V12.5279C6.99992 12.9936 6.89148 13.4529 6.6832 13.8695L5.61795 16H18.3819L17.3166 13.8695C17.1084 13.4529 16.9999 12.9936 16.9999 12.5279V11.0009C16.9999 10.4486 17.4476 10 17.9999 10C18.5522 10 18.9999 10.4477 18.9999 11V12.5279C18.9999 12.6831 19.0361 12.8362 19.1055 12.9751L20.822 16.4081C21.1877 17.1395 20.6558 18 19.8381 18H15.8739C15.4299 19.7252 13.8638 21 11.9999 21C10.1361 21 8.56998 19.7252 8.12594 18H4.16172C3.344 18 2.81216 17.1395 3.17785 16.4081L4.89435 12.9751C4.96377 12.8362 4.99992 12.6831 4.99992 12.5279V9ZM10.2675 18C10.6133 18.5978 11.2596 19 11.9999 19C12.7402 19 13.3865 18.5978 13.7324 18H10.2675ZM17.4999 4C16.6715 4 15.9999 4.67157 15.9999 5.5C15.9999 6.32843 16.6715 7 17.4999 7C18.3283 7 18.9999 6.32843 18.9999 5.5C18.9999 4.67157 18.3283 4 17.4999 4ZM13.9999 5.5C13.9999 3.567 15.5669 2 17.4999 2C19.4329 2 20.9999 3.567 20.9999 5.5C20.9999 7.433 19.4329 9 17.4999 9C15.5669 9 13.9999 7.433 13.9999 5.5Z" fill="#526484"/>
</g>
<defs>
<clipPath id="clip0_7570_33240">
<rect width="24" height="24" fill="white"/>
</clipPath>
</defs>
</svg>
